<?xml version="1.0" encoding="utf-8"?>
<svg viewBox="0 0 100 100" xmlns="http://www.w3.org/2000/svg">
  <defs>
    <pattern id="pattern-0" x="0" y="0" width="20" height="20" patternUnits="userSpaceOnUse" viewBox="0 0 100 100">
      <path d="M 0 0 L 50 0 L 50 100 L 0 100 Z" style="fill: black;"/>
    </pattern>
  </defs>
  <path style="stroke: rgb(0, 0, 0); fill: rgb(85, 196, 218); fill-opacity: 0.32; stroke-opacity: 0;" transform="matrix(0.999994, 0.003342, -0.003342, 0.999994, 0, 0)"/>
  <path style="stroke: rgb(0, 0, 0); fill: rgb(157, 238, 238); stroke-width: 0;" d="M 133.092 39.036" transform="matrix(0.999995, 0.003312, -0.003312, 0.999995, 0.129998, -0.440522)"/>
  <path style="stroke: rgb(0, 0, 0); stroke-width: 0; fill: rgb(146, 240, 244); fill-opacity: 0.3;" d="M 0.108 8.215 C 2.793 1.239 6.078 -1.254 9.603 3.107 C 13.581 8.028 20.05 8.867 25.105 8.465 C 27.994 8.236 30.2 6.159 31.716 2.235 C 33.238 -1.702 37.003 -0.041 43.013 7.219 C 46.733 11.714 52.302 10.385 59.717 3.232 C 62.772 0.286 65.577 1.614 70.293 7.716 C 73.489 11.853 81.646 12.305 86.637 3.981 C 89.055 -0.051 94.225 2.108 99.856 9.835 L 99.856 92.801 C 93.888 100.192 87.84 99.611 81.71 91.057 C 78.702 86.86 74.055 88.894 67.769 97.161 C 64.005 102.113 58.277 99.995 50.583 90.807 C 47.38 86.981 42.853 88.892 37.003 96.538 C 33.625 100.952 28.498 99.084 21.619 90.932 C 18.966 87.786 15.361 89.655 10.804 96.538 C 8.629 99.825 5.063 98.331 0.108 92.053 L 0.108 8.215 Z"/>
  <path style="fill: rgb(216, 216, 216); stroke: rgb(0, 0, 0);"/>
  <path style="fill: rgb(216, 216, 216); stroke: rgb(0, 0, 0);"/>
  <path style="fill: rgb(216, 216, 216); stroke: rgb(0, 0, 0);" d="M 120.239 23.771"/>
  <path style="fill: rgb(216, 216, 216); stroke: rgb(0, 0, 0);" d="M 121.077 29.909"/>
</svg>