<svg viewBox="0 0 100 100" xmlns="http://www.w3.org/2000/svg">
  <defs>
    <pattern id="pattern-0" x="0" y="0" width="20" height="20" patternUnits="userSpaceOnUse" viewBox="0 0 100 100">
      <path d="M 0 0 L 50 0 L 50 100 L 0 100 Z" style="fill: black;"/>
    </pattern>
  </defs>
  <path style="stroke: rgb(0, 0, 0); fill: rgb(85, 196, 218); fill-opacity: 0.32; stroke-opacity: 0;" transform="matrix(0.999994, 0.003342, -0.003342, 0.999994, 0, 0)"/>
  <path style="stroke: rgb(0, 0, 0); stroke-width: 0; stroke-linecap: round; fill: rgba(114, 221, 232, 0.54);" d="M -1.224 14.649 C 0.417 16.451 -1.163 15.551 1.098 12.306 C 3.672 8.617 7.603 9.067 14.199 13.297 C 19.54 16.722 13.431 24.041 37.149 9.333 C 41.516 6.625 47.157 3.626 52.667 11.135 C 55.486 14.977 59.139 19.813 65.116 11.946 C 68.616 7.34 71.374 3.884 78.404 13.656 C 81.089 17.387 85.423 20.692 90.854 12.396 C 93.874 7.782 101.152 13.82 105.255 26.903 C 112.968 51.5 110.925 73.514 103.398 100.335 C 94.133 133.341 58.857 133.311 -2.432 100.244 C -28.091 86.4 -27.689 57.868 -1.224 14.649 Z"/>
</svg>
